<svg width="24" height="24" viewBox="0 0 24 24" fill="none" xmlns="http://www.w3.org/2000/svg">
<g clip-path="url(#clip0_68_173)">
<path d="M8.36104 0.789433C5.96307 1.62131 3.89506 3.20024 2.46077 5.29431C1.02649 7.38838 0.301526 9.8872 0.392371 12.4237C0.483217 14.9603 1.38508 17.4008 2.9655 19.3869C4.54591 21.373 6.72158 22.8 9.17292 23.4582C11.1603 23.971 13.2424 23.9935 15.2404 23.5238C17.0504 23.1173 18.7238 22.2476 20.0967 21.0001C21.5256 19.662 22.5627 17.9597 23.0967 16.0763C23.6768 14.0282 23.7801 11.8743 23.3985 9.78006H12.2385V14.4094H18.7017C18.5725 15.1478 18.2957 15.8525 17.8878 16.4814C17.48 17.1103 16.9494 17.6504 16.3279 18.0694C15.5388 18.5917 14.6491 18.943 13.716 19.1007C12.7803 19.2747 11.8205 19.2747 10.8848 19.1007C9.93633 18.9048 9.03912 18.5134 8.25042 17.9513C6.98319 17.0543 6.03168 15.7799 5.53167 14.3101C5.02333 12.8126 5.02333 11.1893 5.53167 9.69193C5.88759 8.64234 6.47598 7.68669 7.25292 6.89631C8.14202 5.97521 9.26766 5.3168 10.5063 4.99333C11.745 4.66985 13.0488 4.6938 14.2748 5.06256C15.2325 5.35641 16.1083 5.87008 16.8323 6.56256C17.561 5.83756 18.2885 5.11068 19.0148 4.38193C19.3898 3.99006 19.7985 3.61693 20.1679 3.21568C19.0627 2.18728 17.7654 1.387 16.3504 0.860683C13.7736 -0.0749616 10.9541 -0.100106 8.36104 0.789433Z" fill="white"/>
<path d="M8.3607 0.789367C10.9536 -0.100776 13.7731 -0.0762934 16.3501 0.858742C17.7653 1.38864 19.062 2.19277 20.1657 3.22499C19.7907 3.62624 19.3951 4.00124 19.0126 4.39124C18.2851 5.11749 17.5582 5.84124 16.8319 6.56249C16.108 5.87001 15.2322 5.35635 14.2745 5.06249C13.0489 4.69244 11.7451 4.66711 10.5061 4.98926C9.26711 5.31141 8.14079 5.96861 7.2507 6.88874C6.47376 7.67912 5.88538 8.63477 5.52945 9.68437L1.64258 6.67499C3.03384 3.91604 5.44273 1.80566 8.3607 0.789367Z" fill="#E33629"/>
<path d="M0.611401 9.6563C0.820163 8.62087 1.16701 7.61816 1.64265 6.67505L5.52953 9.69192C5.02119 11.1893 5.02119 12.8126 5.52953 14.31C4.23453 15.31 2.9389 16.315 1.64265 17.325C0.452308 14.9556 0.0892746 12.256 0.611401 9.6563Z" fill="#F8BD00"/>
<path d="M12.2381 9.77808H23.3981C23.7797 11.8723 23.6764 14.0262 23.0963 16.0743C22.5623 17.9577 21.5252 19.66 20.0963 20.9981C18.8419 20.0193 17.5819 19.0481 16.3275 18.0693C16.9494 17.6499 17.4802 17.1091 17.8881 16.4796C18.296 15.85 18.5726 15.1446 18.7013 14.4056H12.2381C12.2363 12.8643 12.2381 11.3212 12.2381 9.77808Z" fill="#587DBD"/>
<path d="M1.64062 17.3251C2.93688 16.3251 4.2325 15.3201 5.5275 14.3101C6.02851 15.7804 6.98139 17.0549 8.25 17.9513C9.04116 18.5107 9.94031 18.899 10.89 19.0913C11.8257 19.2653 12.7855 19.2653 13.7213 19.0913C14.6543 18.9336 15.544 18.5823 16.3331 18.0601C17.5875 19.0388 18.8475 20.0101 20.1019 20.9888C18.7292 22.237 17.0558 23.1073 15.2456 23.5144C13.2476 23.9841 11.1655 23.9616 9.17813 23.4488C7.60632 23.0291 6.13814 22.2893 4.86563 21.2757C3.51887 20.2062 2.41882 18.8587 1.64062 17.3251Z" fill="#319F43"/>
</g>
<defs>
<clipPath id="clip0_68_173">
<rect width="24" height="24" fill="white"/>
</clipPath>
</defs>
</svg>
