<svg width="39" height="40" viewBox="0 0 39 40" fill="none" xmlns="http://www.w3.org/2000/svg">
<path d="M14.4 20C15.2487 20 16.0626 19.6488 16.6627 19.0236C17.2629 18.3985 17.6 17.5507 17.6 16.6666C17.6 15.7826 17.2629 14.9347 16.6627 14.3096C16.0626 13.6845 15.2487 13.3333 14.4 13.3333C13.5513 13.3333 12.7374 13.6845 12.1373 14.3096C11.5371 14.9347 11.2 15.7826 11.2 16.6666C11.2 17.5507 11.5371 18.3985 12.1373 19.0236C12.7374 19.6488 13.5513 20 14.4 20ZM19.2 1.66663L34.4 10.8333V29.1666L19.2 38.3333L4 29.1666V10.8333L19.2 1.66663ZM7.2 12.755V27.245L10.9952 29.5333L23.912 19.6666L31.2 24.2233V12.7566L19.2 5.51663L7.2 12.755Z" fill="black"/>
</svg>
